<?xml version="1.0" encoding="utf-8"?>
<!-- Generator: Adobe Illustrator 19.0.0, SVG Export Plug-In . SVG Version: 6.00 Build 0)  -->
<svg version="1.1" id="图层_1" xmlns="http://www.w3.org/2000/svg" xmlns:xlink="http://www.w3.org/1999/xlink" x="0px" y="0px"
	 viewBox="-399 176 600 200" style="enable-background:new -399 176 600 200;" xml:space="preserve">
<style type="text/css">
	.st0{fill:#4D5059;}
	.st1{fill:#0075BE;}
</style>
<g id="XMLID_120_">
	<g id="XMLID_170_">
		<path id="XMLID_192_" class="st0" d="M-228.8,232.4c16.9,0,31.8,8.6,40.5,21.6c-8.2-15.5-24.5-26-43.2-26
			c-27,0-48.9,21.9-48.9,48.9c0,10.1,3.1,19.5,8.3,27.3c-3.6-6.8-5.7-14.6-5.7-22.9C-277.7,254.3-255.8,232.4-228.8,232.4z"/>
		<path id="XMLID_191_" class="st0" d="M-230.2,222.7c36.8,0,66.7,29.8,66.7,66.7c0,6.2-0.8,12.1-2.4,17.8c3-7.6,4.6-15.8,4.6-24.4
			c0-36.8-29.8-66.7-66.7-66.7c-30.7,0-56.5,20.7-64.3,48.9C-282.5,240.2-258.4,222.7-230.2,222.7z"/>
		<path id="XMLID_190_" class="st0" d="M-244.8,319.6c-16.9,0-31.8-8.6-40.5-21.6c8.2,15.5,24.5,26,43.2,26
			c27,0,48.9-21.9,48.9-48.9c0-10.1-3.1-19.5-8.3-27.3c3.6,6.8,5.7,14.6,5.7,22.9C-196,297.7-217.8,319.6-244.8,319.6z"/>
		<path id="XMLID_189_" class="st0" d="M-243.5,329.3c-36.8,0-66.7-29.8-66.7-66.7c0-6.2,0.8-12.1,2.4-17.8
			c-3,7.6-4.6,15.8-4.6,24.4c0,36.8,29.8,66.7,66.7,66.7c30.7,0,56.5-20.7,64.3-48.9C-191.2,311.8-215.2,329.3-243.5,329.3z"/>
		<g id="XMLID_171_">
			<g>
				<path class="st0" d="M-236.8,242.7c-18.4,0-33.3,14.9-33.3,33.3s14.9,33.3,33.3,33.3s33.3-14.9,33.3-33.3
					C-203.5,257.6-218.4,242.7-236.8,242.7z M-234.6,291.6c2.6,0.2,5.2,0.8,7.6,1.6c-2.1,2.8-4.7,5.2-7.6,7.1V291.6z M-234.6,287.2
					v-9h13.2c-0.3,4-1.4,7.8-3.2,11.2C-227.7,288.2-231.1,287.4-234.6,287.2z M-234.6,273.8v-9c3.5-0.2,6.9-1,10-2.2
					c1.8,3.4,2.9,7.2,3.2,11.2H-234.6z M-234.6,260.4v-8.7c2.9,1.9,5.5,4.3,7.6,7.1C-229.4,259.6-232,260.1-234.6,260.4z
					 M-231.7,248.3c0.5-0.1,1-0.3,1.5-0.4c4.4,1,8.4,3.1,11.8,5.9c-1.4,1.2-2.9,2.2-4.5,3.1C-225.2,253.5-228.2,250.6-231.7,248.3z
					 M-242,248.3c-3.4,2.3-6.4,5.2-8.8,8.6c-1.6-0.9-3.1-1.9-4.5-3.1c3.4-2.8,7.4-4.8,11.8-5.9C-243,248-242.5,248.1-242,248.3z
					 M-239.1,251.7v8.7c-2.6-0.2-5.2-0.8-7.6-1.6C-244.6,255.9-242,253.5-239.1,251.7z M-239.1,264.8v9h-13.2
					c0.3-4,1.4-7.8,3.2-11.2C-245.9,263.8-242.6,264.6-239.1,264.8z M-239.1,278.2v9c-3.5,0.2-6.9,1-10,2.2
					c-1.8-3.4-2.9-7.2-3.2-11.2H-239.1z M-239.1,291.6v8.7c-2.9-1.9-5.5-4.3-7.6-7.1C-244.2,292.4-241.7,291.9-239.1,291.6z
					 M-242,303.7c-0.5,0.1-1,0.3-1.5,0.4c-4.4-1-8.4-3.1-11.8-5.9c1.4-1.2,2.9-2.2,4.5-3.1C-248.4,298.5-245.5,301.4-242,303.7z
					 M-231.7,303.7c3.4-2.3,6.4-5.2,8.8-8.6c1.6,0.9,3.1,1.9,4.5,3.1c-3.4,2.8-7.4,4.8-11.8,5.9C-230.7,304-231.2,303.9-231.7,303.7
					z M-220.6,291.3c2.1-4,3.3-8.4,3.7-13.1h8.9c-0.5,6.5-3.1,12.3-7.1,16.9C-216.9,293.7-218.7,292.4-220.6,291.3z M-216.9,273.8
					c-0.3-4.7-1.6-9.2-3.7-13.1c1.9-1.1,3.7-2.3,5.4-3.8c4,4.6,6.6,10.4,7.1,16.9H-216.9z M-258.5,256.9c1.7,1.4,3.5,2.7,5.4,3.8
					c-2.1,4-3.3,8.4-3.7,13.1h-8.9C-265,267.3-262.5,261.5-258.5,256.9z M-265.5,278.2h8.9c0.3,4.7,1.6,9.2,3.7,13.1
					c-1.9,1.1-3.7,2.3-5.4,3.8C-262.5,290.5-265,284.7-265.5,278.2z"/>
			</g>
		</g>
	</g>
	<g id="XMLID_150_">
		<path id="XMLID_167_" class="st1" d="M-24.8,322.7v-22.2h7.9c2.4,0,4.2,0.2,5.3,0.6s2,1.1,2.6,2.1c0.7,1,1.1,2.6,1.1,3.9
			c0,1.7-0.4,3.2-1.3,4.4c-1.6,2.2-4.9,2.2-4.9,2.2l8,8.9h-5.3l-8-8.9h-1v8.9h-4.4V322.7z M-20.4,309.3h3.5c1.7,0,2.8-0.1,3.2-0.2
			s0.8-0.4,1-0.7c0.2-0.4,0.4-0.8,0.4-1.3c0-0.6-0.2-1.1-0.5-1.4c-0.3-0.4-0.8-0.6-1.3-0.7c-0.3,0-1.2-0.1-2.6-0.1h-3.7V309.3z"/>
		<path id="XMLID_165_" class="st1" d="M16.9,322.7v-22.2h4.4l8.9,14.7v-14.7h4.4v22.2h-4.4l-8.9-14.4v14.4H16.9z"/>
		<path id="XMLID_162_" class="st1" d="M95.6,322.7v-22.2h7.9c2.4,0,4.2,0.2,5.3,0.6c1.1,0.4,2,1.1,2.6,2.1c0.7,1,1.1,2.6,1.1,3.9
			c0,1.7-0.4,3.2-1.3,4.4c-1.6,2.2-4.9,2.2-4.9,2.2l8,8.9h-5.3l-8-8.9h-0.9v8.9h-4.5V322.7z M100,309.3h3.5c1.7,0,2.8-0.1,3.2-0.2
			c0.4-0.1,0.8-0.4,1-0.7c0.2-0.4,0.4-0.8,0.4-1.3c0-0.6-0.2-1.1-0.5-1.4s-0.8-0.6-1.3-0.7c-0.3,0-1.2-0.1-2.6-0.1h-3.6L100,309.3
			L100,309.3z"/>
		<path id="XMLID_159_" class="st1" d="M15.2,322.7h-4.4l-1.9-5.3H1.2l-1.9,5.3h-4.4l8-22.2h4.4L15.2,322.7z M7.5,313.8l-2.6-7.2
			l-2.6,7.2H7.5z"/>
		<path id="XMLID_157_" class="st1" d="M-39.1,322.7v-17.8h-6.7v-4.4H-28v4.4h-6.7v17.8H-39.1z"/>
		<path id="XMLID_155_" class="st1" d="M57.8,322.7v-22.2h16v4.4H62.2v4.4h10.7v3.6H62.3v9.8L57.8,322.7L57.8,322.7z"/>
		<path id="XMLID_153_" class="st1" d="M76.5,322.7v-22.2h16v4.4H80.9v4.4h10.7v3.6H80.9v5.3h11.5v4.4H76.5V322.7z"/>
		<path id="XMLID_151_" class="st1" d="M37.4,315.6h4.3c0.3,1.4,0.8,1.8,1.6,2.5c0.8,0.7,1.9,1,3.2,1c1.4,0,2.5-0.3,3.2-0.9
			s1.1-1.3,1.1-2.1c0-0.5-0.2-0.9-0.5-1.3s-0.8-0.7-1.6-0.9c-0.5-0.2-1.7-0.5-3.5-0.9c-2.4-0.6-4-1.3-5-2.1c-1.3-1.2-2-2.6-2-4.3
			c0-1.1,0.3-2.1,0.9-3.1c0.6-1,1.5-1.7,2.7-2.2s2.6-0.7,4.3-0.7c2.7,0,4.8,0.6,6.2,1.8c1.4,1.2,2.1,2.5,2.2,4.5h-4.4
			c-0.2-1.1-0.6-1.4-1.2-1.9s-1.6-0.7-2.8-0.7c-1.3,0-2.3,0.3-3,0.8c-0.5,0.3-0.7,0.8-0.7,1.3s0.2,0.9,0.7,1.3
			c0.6,0.5,1.9,0.9,4.1,1.4c2.1,0.5,3.7,1,4.8,1.5c1,0.5,1.8,1.3,2.4,2.2c0.6,0.9,0.9,2.1,0.9,3.4c0,1.2-0.3,2.4-1,3.5
			s-1.7,1.9-3,2.4s-2.9,0.8-4.8,0.8c-2.8,0-4.9-0.6-6.4-1.9C38.5,319.5,37.7,318,37.4,315.6z"/>
	</g>
	<g id="XMLID_140_">
		<path id="XMLID_147_" class="st1" d="M-96,322.7h-4.4l-1.9-5.3h-7.7l-1.9,5.3h-4.5l8-22.2h4.4L-96,322.7z M-103.6,313.8l-2.6-7.2
			l-2.6,7.2H-103.6z"/>
		<path id="XMLID_145_" class="st1" d="M-95.1,315.6h4.3c0.3,1.4,0.8,1.8,1.6,2.5c0.8,0.7,1.9,1,3.2,1c1.4,0,2.5-0.3,3.2-0.9
			s1.1-1.3,1.1-2.1c0-0.5-0.2-0.9-0.5-1.3s-0.8-0.7-1.6-0.9c-0.5-0.2-1.7-0.5-3.5-0.9c-2.4-0.6-4-1.3-5-2.1c-1.3-1.2-2-2.6-2-4.3
			c0-1.1,0.3-2.1,0.9-3.1s1.5-1.7,2.7-2.2s2.6-0.7,4.3-0.7c2.7,0,4.8,0.6,6.2,1.8c1.4,1.2,2.1,2.5,2.2,4.5h-4.4
			c-0.2-1.1-0.6-1.4-1.2-1.9c-0.6-0.5-1.6-0.7-2.8-0.7c-1.3,0-2.3,0.3-3,0.8c-0.5,0.3-0.7,0.8-0.7,1.3s0.2,0.9,0.7,1.3
			c0.6,0.5,1.9,0.9,4.1,1.4c2.1,0.5,3.7,1,4.8,1.5c1,0.5,1.8,1.3,2.4,2.2c0.6,0.9,0.9,2.1,0.9,3.4c0,1.2-0.3,2.4-1,3.5
			c-0.7,1.1-1.7,1.9-3,2.4c-1.3,0.5-2.9,0.8-4.8,0.8c-2.8,0-4.9-0.6-6.4-1.9C-93.9,319.5-94.8,318-95.1,315.6z"/>
		<path id="XMLID_143_" class="st1" d="M-68.4,322.7v-9.8l-8-12.4h4.9l5.3,8.3l5.3-8.3h4.9l-8,12.4v9.8H-68.4z"/>
		<path id="XMLID_141_" class="st1" d="M-134.6,322.7v-22.2h16v4.4h-11.6v4.4h10.7v3.6h-10.7v5.3h11.5v4.4h-15.9V322.7z"/>
	</g>
	<g id="XMLID_121_">
		<path id="XMLID_134_" class="st0" d="M-8.4,263v-29.2c0-2.5-1.5-4.8-4-4.8h-45v33.6v0.4H-8.4z M-17.4,236v7h-11v-7H-17.4z
			 M-48.4,236h11v7h-11V236z M-48.4,249h11v7h-11V249z M-28.4,256v-7h11v7H-28.4z"/>
		<path id="XMLID_130_" class="st0" d="M-76.8,263h-32.7l5.3-5h26.8v-24.2c0-2.5-1.4-4.8-3.9-4.8h-47.1v29h12.4l-18.6,15.7l4.9,5.7
			l12.2-10.4h7.5l-19.6,16.6l4.9,5.7l26.5-22.3h7.8l-19.6,16.6l4.8,5.9l23.8-19.9V285h-9v7h13.6c2.5,0,4.4-2.4,4.4-4.9v-20
			C-72.4,264.7-74.4,263-76.8,263z M-119.4,236h33v4h-33V236z M-119.4,247h33v5h-33V247z"/>

			<rect id="XMLID_129_" x="-16.5" y="269.9" transform="matrix(0.5 0.866 -0.866 0.5 232.8796 144.4403)" class="st0" width="15.6" height="8"/>

			<rect id="XMLID_128_" x="-34.6" y="264.8" transform="matrix(0.866 -0.5 0.5 0.866 -139.8254 21.0718)" class="st0" width="8" height="13.3"/>
		<path id="XMLID_127_" class="st0" d="M-20.4,284h-23v-17h-8v20.1c0,2.5,1.9,4.9,4.3,4.9h30.3c2.5,0,4.4-2.4,4.4-4.9v-3.6V278h-8
			V284z"/>

			<rect id="XMLID_126_" x="6.5" y="232.7" transform="matrix(0.766 0.6428 -0.6428 0.766 155.2162 46.9409)" class="st0" width="13.3" height="8"/>

			<rect id="XMLID_125_" x="6.5" y="250.4" transform="matrix(0.766 0.6428 -0.6428 0.766 166.6371 51.0873)" class="st0" width="13.3" height="8"/>

			<rect id="XMLID_124_" x="9" y="268.7" transform="matrix(0.9397 0.342 -0.342 0.9397 96.4762 12.4255)" class="st0" width="8" height="22.2"/>
		<path id="XMLID_123_" class="st0" d="M64.6,240v-4c0-2.5-1.2-4-3.7-4H22.6v57h42v-9h-33v-40H64.6z"/>

			<rect id="XMLID_122_" x="-61.8" y="270.6" transform="matrix(0.9397 0.342 -0.342 0.9397 90.9492 36.4075)" class="st0" width="8" height="11.1"/>
	</g>
</g>
</svg>
